<?xml version="1.0" encoding="UTF-8"?>
<svg id="b" data-name="Text" xmlns="http://www.w3.org/2000/svg" width="96" height="96" viewBox="0 0 96 96">
  <path d="M59.52,48.26l5.97-11.89h2.43l5.39,11.84,1.7-11.84h12.28l-5.68,24.9h-10.83l-4.61-9.37-4.61,9.37h-10.34l-5.68-24.9h12.28l1.7,11.89Z" style="fill: #fff;"/>
  <path d="M35.45,30.94c3.16,0,8.14,3.39,8.14,9.79,0,9.57-9.87,20.34-14.69,20.34-2.26,0-4.29-1.43-4.29-4.67,0-1.36.45-3.24.45-3.24-2.03,2.94-7.61,11.9-10.39,11.9-2.49,0-5.95-2.26-5.95-5.73,0-8.06,8.44-12.66,8.44-19.81,0-.83.23-1.21.68-1.21,1.51,0,3.62,3.16,3.62,6.48,0,4.97-5.95,12.96-5.95,14.99,0,.38.23.6.53.6.68,0,5.2-5.27,7.68-9.72,2.86-5.05,3.62-6.33,4.52-6.33,2.18,0,3.77,2.56,3.77,4.29,0,3.01-2.86,5.8-2.86,8.59,0,.45.23.75.6.75,1.58,0,7.23-9.42,7.23-17.78,0-7.91-2.86-7.76-2.86-8.44,0-.38.45-.83,1.36-.83Z" style="fill: #fff;"/>
</svg>