<?xml version="1.0" encoding="UTF-8"?>
<svg xmlns="http://www.w3.org/2000/svg" width="1500" height="769.4" viewBox="0 0 1500 769.4">
  <g id="a" data-name="Graphics">
    <g>
      <path d="M479.79,564.29l77.45-29.19c4.73-1.78,9.85-2.27,14.83-1.4l13.53,2.35c5.59.97,11.33-.59,15.66-4.26l155.29-139.62c10.29-8.73,25.3-8.98,35.88-.6l39.12,37.88c5.58,4.42,13.15,5.38,19.66,2.49l8.12-3.61c10.05-4.46,21.77-2.71,30.06,4.51l73.25,63.72c5.11,4.45,12.19,5.86,18.62,3.72l4.09-1.36c7.02-2.34,14.67-1.84,21.32,1.4l131.61,63.99H479.79Z" style="fill: #455543;"/>
      <path d="M659.47,479.45h0s0,0,0,0c-3.05-13.69-15.26-23.93-29.87-23.93-6.49,0-12.51,2.03-17.46,5.48-3.09-18.87-19.46-33.27-39.2-33.27-21.77,0-39.45,17.52-39.72,39.23-3.72-1.89-7.93-2.97-12.39-2.97-13.62,0-24.9,9.95-27,22.97-3.66-5.6-9.99-9.32-17.18-9.32-6.36,0-12.05,2.9-15.82,7.44-3.42-10-12.87-17.19-24.02-17.19-8.11,0-15.32,3.82-19.97,9.74-4.73-8.16-13.56-13.65-23.67-13.65-15.11,0-27.35,12.25-27.35,27.35,0,1.67.16,3.3.44,4.89h0l.33,22.46,248.02,1.09,44.86-40.33Z" style="fill: #83a38e;"/>
      <path d="M618.29,447.21c3.64-1.06,7.44-1.6,11.3-1.6,16.05,0,30.51,9.69,36.96,23.93h3.94l63.11-56.75c-11.11-23.26-34.84-39.33-62.33-39.33-33.31,0-61.1,23.59-67.6,54.97,6.25,4.92,11.31,11.32,14.61,18.78Z" style="fill: #f9a230;"/>
      <path d="M479.79,564.29l37.52-14.14-47.41-13.05c-5.01-1.38-10.32-1.22-15.24.47l-61.32,21.01c-.97.33-2.01.4-3.01.2l-15.37-3.07c-5.78-1.16-11.77.38-16.28,4.18l-5.24,4.41,179.76.65v-.65h-53.41Z" style="fill: #83a38e;"/>
      <path d="M1096.74,515.58c-11.56-5.85-25.09-6.42-37.11-1.57l-11.46,6.48,90.09,43.81h8.3v-17.59l-49.82-31.13Z" style="fill: #83a38e;"/>
    </g>
  </g>
  <g id="b" data-name="Text">
    <g>
      <path d="M99.73,649.29c11.51-21.4,23.03-41.91,34.54-61.61,3.35.27,6.7.53,10.05.8,11.52,21.29,23.04,41.73,34.56,61.39,4.09-21.72,8.17-43.14,12.26-64.27,22.47,1.79,44.96,3.48,67.44,5.06-10.63,42.66-21.26,86.78-31.89,132.52-19.21,1.44-38.42,2.95-57.62,4.54-9.97-16.58-19.93-33.74-29.9-51.52-9.88,18.26-19.77,37.15-29.65,56.72-19.19,1.76-38.37,3.59-57.55,5.51-10.61-54.05-21.21-110.19-31.82-168.57,22.43,2.34,44.87,4.58,67.32,6.7,4.08,24.6,8.16,48.84,12.25,72.74Z" style="fill: #fff;"/>
      <path d="M366.07,597.37c48.37,2.76,64.59,16.22,64.58,31.76,0,15.71-14.49,24.42-41.99,28.43v1.8c26.77,1.07,38.56,3.24,38.56,24.53,0,17.54.74,22.9,10.56,24.66v2.04c-20.63.92-41.26,1.93-61.89,3.03-12.52.69-16.94-5.27-16.94-15.54v-19.15c0-7.38-3.19-9.86-10.8-9.77-1.96.03-3.93.05-5.89.08,0,15.42,0,30.83,0,46.25-22.58,1.31-45.16,2.74-67.73,4.27v-128.01c30.51,2.07,61.02,3.94,91.55,5.61ZM358.21,635.59c0-7.05-4.66-9.7-15.96-9.53,0,6.94,0,13.88,0,20.82,11.29.09,15.96-2.57,15.96-11.29Z" style="fill: #fff;"/>
      <path d="M577.32,605.76c15.4,33.71,30.8,66.61,46.21,99.01-21.55.39-43.09.88-64.64,1.47-1.56-3.85-3.11-7.71-4.67-11.58-14.25.31-28.51.65-42.76,1.02-1.15,4.04-2.29,8.08-3.44,12.14-22.6.78-45.21,1.67-67.8,2.67,14.25-37.11,28.49-72.92,42.74-107.68,31.45,1.2,62.9,2.19,94.36,2.96ZM531.12,635.39c-.74,0-1.47-.02-2.21-.03-2.87,10.04-5.73,20.13-8.6,30.28,7.45-.05,14.91-.09,22.36-.13-3.85-9.97-7.7-20.01-11.55-30.12Z" style="fill: #fff;"/>
      <path d="M697.27,607.7c14.09,12.19,28.19,24.26,42.28,36.3v-36.1c21.71.04,43.43-.03,65.14-.19,0,32.04,0,64.07,0,96.11-20.08-.15-40.15-.22-60.23-.2-14.09-11.02-28.19-22-42.28-33.04v33.2c-21.71.15-43.43.4-65.14.75v-97.55c20.07.33,40.15.57,60.22.72Z" style="fill: #fff;"/>
      <path d="M925.13,602.9c27.03-.71,52.83,3.18,68.56,10.79-10.24,10.49-20.48,20.76-30.71,30.84-9.34-4.17-19.17-5.93-30.47-5.83-19.91.19-31.95,6.63-31.95,17.34,0,11.28,12.29,17.72,33.92,17.95,2.95.03,5.16-.09,7.13-.22,0-7.01,0-14.02,0-21.03,20.89-.03,41.78-.07,62.66-.12v55.54c-6.96-.25-13.92-.49-20.88-.72-4.75-2.52-9.5-5.01-14.25-7.48-14.99,5.75-33.67,8.91-51.85,8.46-56.53-1.53-94.14-21.85-94.14-52.24,0-31.63,39.33-51.51,102-53.27Z" style="fill: #fff;"/>
      <path d="M1091.46,599.68v69.37c16.62.19,33.23.4,49.85.61v44.75c-39.12-2.17-78.25-4.01-117.39-5.53,0-35.42,0-70.84,0-106.26,22.52-.87,45.04-1.85,67.55-2.94Z" style="fill: #fff;"/>
      <path d="M1293.67,586.98v39.5c-21.74.72-43.49,1.39-65.24,2.02v10.25c21.51-.39,43.01-.8,64.51-1.24v34.55c-21.5-.39-43-.76-64.51-1.11v10.98c23.39.65,46.77,1.35,70.15,2.09v40.9c-45.85-3.58-91.73-6.7-137.64-9.38v-119.56c44.27-2.58,88.51-5.58,132.73-9Z" style="fill: #fff;"/>
      <path d="M1410.81,576.95c48.25-4.91,64.39,13.35,64.39,37.69,0,24.44-14.44,38.3-41.86,43.67v2.54c26.69,1.76,38.43,5.23,38.43,38.05,0,26.9.73,35.16,10.52,39.58v3.19c-20.56-2.15-41.12-4.2-61.69-6.17-12.49-1.23-16.9-9.88-16.9-23.48v-25.45c0-9.83-3.18-13.25-10.78-13.4-1.96-.04-3.92-.08-5.88-.12v59.32c-22.54-2.04-45.08-3.98-67.64-5.81v-141.62c30.48-2.47,60.95-5.13,91.4-8ZM1402.98,628.99c0-9.39-4.65-12.5-15.92-11.32v26.71c11.27-.14,15.92-3.77,15.92-15.39Z" style="fill: #fff;"/>
    </g>
    <g>
      <path d="M376.58,205.03c16.32-8.86,51.45-5.29,69.38,27.74,26.78,49.35,6.03,132.54-18.83,146.03-11.66,6.33-26.16,4.64-35.22-12.07-3.8-6.99-6.74-17.97-6.74-17.97-2.27,20.85-5.93,82.69-20.3,90.49-12.82,6.96-37.02,5-46.72-12.87-22.56-41.58,8.09-88.9-11.94-125.81-2.32-4.27-2.21-6.85.12-8.11,7.77-4.22,27.51,6.2,36.79,23.29,13.92,25.65,5.57,83.49,11.27,93.98,1.05,1.94,2.85,2.48,4.41,1.63,3.5-1.9,12.05-41.75,12.43-71.63.64-34.05.94-42.76,5.6-45.29,11.27-6.12,26.6,2.67,31.45,11.6,8.44,15.54,1.47,37.93,9.27,52.31,1.27,2.33,3.27,3.25,5.22,2.2,8.16-4.43,10.94-68.81-12.46-111.95-22.14-40.8-36.49-32.01-38.38-35.51-1.05-1.94.01-5.54,4.67-8.07Z" style="fill: #fff;"/>
      <path d="M549.59,344.24c-26.32,7.64-56.06-1.22-65.79-34.76-15.53-53.49,24.31-109.71,54.45-118.47,10.61-3.08,29.36,7.59,33.06,20.32,7.59,27.72-14.41,67.71-36.91,74.24-5.09,1.48-14.94-.73-14.94-.73,0,0-2.19,13.07,2.99,30.9,3.7,12.74,9.6,15.63,15.12,14.02,28.87-8.38,53.84-63.51,66.14-98.84,1.08-2.62,1.56-4.14,2.83-4.51,3.82-1.11,8.57,2.57,9.44,5.55.74,2.55.21,5.46-.93,9.48-9.05,27.49-37.43,94.65-65.45,102.79ZM521.04,269.67c11.04-3.21,35.81-46.3,33.33-58.01-.49-1.7-1.71-2.73-2.99-2.36-4.67,1.36-19.97,16.85-30.35,60.37Z" style="fill: #fff;"/>
      <path d="M712.81,294.79c-19.8,1.93-32.98-19.44-33.97-29.56-6.6.64-29.02,62.34-54.98,64.87-13.64,1.33-34.34-5.99-37.51-38.55-4.8-49.28,49.36-118.07,108.77-123.85,12.76-1.24,25,10.45,25.6,16.61.6,6.16-10.35,3.23-28.06,12.95-41.76,22.72-72.43,91-70.85,107.28.26,2.64,1.71,3.83,3.47,3.66,10.56-1.03,51.73-66.33,62.38-84.69,4.91-8.92,9.15-15.55,13.99-16.02,9.24-.9,18.59,8.41,19.44,17.21,1.84,18.92-18.4,39.1-17.59,47.46.3,3.08,1.75,4.27,3.51,4.1,11.44-1.11,39.15-43.07,51.39-63.36,1.55-2.37,2.3-3.78,3.62-3.91,3.96-.39,4.76,5.93,5.06,9.01.26,2.64-.81,5.41-2.66,9.14-5.26,9.84-34.44,65.98-51.61,67.65Z" style="fill: #fff;"/>
      <path d="M795.21,153.57c16.35-27.32,29.94-53.03,33.48-74.07.69-3.94,2.13-5.62,4.78-5.46,3.09.2,15.13,5.83,13.57,30.54-1.36,14.53-8.69,32.23-18.82,52.41,32.62,2.51,43.84,7.21,43.45,13.38-.25,3.97-5.96,10.25-11.26,9.92-3.53-.22-23.85-1.07-43.27-2.3-25.57,47.11-58.27,101.74-61.34,150.27-1.34,21.18,5.47,25.6,5.24,29.13-.11,1.77-2.46,3.83-5.99,3.61-10.59-.67-36.3-21.35-34.01-57.53,2.35-37.06,34.68-85.96,63.31-132.43-7.58-6.24-11.87-15.37-11.65-18.9.2-3.09,1.6-4.33,3.81-4.19,1.76.11,6.45,3.07,18.69,5.61Z" style="fill: #fff;"/>
      <path d="M918.95,318.41c-17.23-3.99-28.15-21.49-24.16-38.72,7.98-34.46,52.99-60.34,55.29-70.25.3-1.29-.36-2.35-1.22-2.55-5.6-1.3-75.38,37.46-111.39,75.41-23.38,24.54-28.16,33.42-32.89,32.32-4.74-1.1-10.4-11.94-7.01-26.58,15.65-67.62,145.32-176.92,164.77-260.91.9-3.88,3.22-6.06,6.23-5.36,7.32,1.69,26.13,22.38,20.65,46.07-14.66,63.31-101.38,126.28-126.53,172.19,42.77-31.85,79.93-53.2,103.19-47.81,14.64,3.39,22.09,18.27,19.1,31.19-6.58,28.43-59.35,46.62-65.03,71.17-1,4.31.76,6.53,3.34,7.13,11.2,2.59,59.1-29.83,77.17-45.16,2.22-1.75,3.38-2.85,4.67-2.55,3.88.9,2.16,6.35,1.46,9.36-.6,2.58-2.49,4.87-5.44,7.82-16.35,15.73-61.07,52.12-82.18,47.23Z" style="fill: #fff;"/>
      <path d="M998.33,361.75c-25-11.24-41.9-37.26-27.58-69.11,22.84-50.81,89.62-67.8,118.25-54.93,10.08,4.53,17.45,24.81,12.01,36.91-12.19,26.03-54.85,42.23-76.23,32.62-4.84-2.18-10.91-10.24-10.91-10.24,0,0-10.14,8.53-17.75,25.47-5.44,12.1-2.82,18.12,2.43,20.48,27.42,12.33,78.25-11.8,110.81-30.26,2.52-1.29,9.13-3.64,10.34-3.09,3.63,1.63,3.22,6.86,1.95,9.68-1.09,2.42-3.39,4.29-6.85,6.61-24.71,15.07-89.85,47.83-116.46,35.86ZM1024.91,286.45c10.48,4.71,57.29-12.06,62.99-22.58.72-1.61.46-3.19-.75-3.73-4.44-1.99-26.12-.11-62.24,26.31Z" style="fill: #fff;"/>
      <path d="M1103.91,328.51c-1.8-1.28-5.4-7.44-2.83-11.04,2.05-1.93,4.52-3.09,9.6-5.31,28.93-10.87,53.59-22.6,53.59-22.6-.16-6.63,1.27-20.81,5.89-27.29,12.83-18,44.38-26.45,53.02-20.29,6.48,4.62,6.64,15.05,1.76,21.89-7.44,10.44-27.99,20.22-39.19,25.27-8.21,11.52,8.06,48.1-3.75,64.66-12.58,17.64-47,27.84-63.17,50.52-2.57,3.6-1.69,6.94.47,8.48,11.16,7.96,81.65-13.99,107.45-22.75,2.72-.77,4.21-1.34,5.29-.57,3.24,2.31,3.29,8.32,1.5,10.84-1.54,2.16-4.16,3.55-8.01,5.15-25.07,9.27-97.72,37.29-121.48,20.34-20.16-14.37-24.24-40.63-12.69-56.83,21.3-29.88,65.45-29.35,77.52-46.26,3.34-4.68,2.51-5.81-1.14-18.19,0,0-20.44,9.79-57.07,23.85-2.98,1.13-5.3,1.18-6.74.15Z" style="fill: #fff;"/>
    </g>
  </g>
</svg>