<?xml version="1.0" encoding="UTF-8"?>
<svg xmlns="http://www.w3.org/2000/svg" version="1.1" viewBox="0 0 1500 769.4">
  <!-- Generator: Adobe Illustrator 29.6.0, SVG Export Plug-In . SVG Version: 2.1.1 Build 207)  -->
  <defs>
    <style>
      .st0 {
        fill: #f9a230;
      }

      .st1 {
        fill: #83a38e;
      }

      .st2 {
        fill: #455543;
      }

      .st3 {
        fill: #6d6043;
      }
    </style>
  </defs>
  <g id="Graphics">
    <g>
      <path class="st2" d="M479.8,564.3l77.4-29.2c4.7-1.8,9.8-2.3,14.8-1.4l13.5,2.4c5.6,1,11.3-.6,15.7-4.3l155.3-139.6c10.3-8.7,25.3-9,35.9-.6l39.1,37.9c5.6,4.4,13.2,5.4,19.7,2.5l8.1-3.6c10-4.5,21.8-2.7,30.1,4.5l73.2,63.7c5.1,4.4,12.2,5.9,18.6,3.7l4.1-1.4c7-2.3,14.7-1.8,21.3,1.4l131.6,64H479.8Z"/>
      <path class="st1" d="M659.5,479.5h0s0,0,0,0c-3.1-13.7-15.3-23.9-29.9-23.9s-12.5,2-17.5,5.5c-3.1-18.9-19.5-33.3-39.2-33.3s-39.4,17.5-39.7,39.2c-3.7-1.9-7.9-3-12.4-3-13.6,0-24.9,9.9-27,23-3.7-5.6-10-9.3-17.2-9.3s-12.1,2.9-15.8,7.4c-3.4-10-12.9-17.2-24-17.2s-15.3,3.8-20,9.7c-4.7-8.2-13.6-13.6-23.7-13.6-15.1,0-27.4,12.2-27.4,27.4s.2,3.3.4,4.9h0l.3,22.5,248,1.1,44.9-40.3Z"/>
      <path class="st0" d="M618.3,447.2c3.6-1.1,7.4-1.6,11.3-1.6,16.1,0,30.5,9.7,37,23.9h3.9l63.1-56.7c-11.1-23.3-34.8-39.3-62.3-39.3s-61.1,23.6-67.6,55c6.3,4.9,11.3,11.3,14.6,18.8Z"/>
      <path class="st1" d="M479.8,564.3l37.5-14.1-47.4-13c-5-1.4-10.3-1.2-15.2.5l-61.3,21c-1,.3-2,.4-3,.2l-15.4-3.1c-5.8-1.2-11.8.4-16.3,4.2l-5.2,4.4,179.8.7v-.7h-53.4Z"/>
      <path class="st1" d="M1096.7,515.6c-11.6-5.9-25.1-6.4-37.1-1.6l-11.5,6.5,90.1,43.8h8.3v-17.6l-49.8-31.1Z"/>
    </g>
  </g>
  <g id="Text">
    <g>
      <path class="st3" d="M99.7,649.3c11.5-21.4,23-41.9,34.5-61.6,3.3.3,6.7.5,10,.8,11.5,21.3,23,41.7,34.6,61.4,4.1-21.7,8.2-43.1,12.3-64.3,22.5,1.8,45,3.5,67.4,5.1-10.6,42.7-21.3,86.8-31.9,132.5-19.2,1.4-38.4,2.9-57.6,4.5-10-16.6-19.9-33.7-29.9-51.5-9.9,18.3-19.8,37.1-29.6,56.7-19.2,1.8-38.4,3.6-57.5,5.5-10.6-54-21.2-110.2-31.8-168.6,22.4,2.3,44.9,4.6,67.3,6.7,4.1,24.6,8.2,48.8,12.2,72.7Z"/>
      <path class="st3" d="M366.1,597.4c48.4,2.8,64.6,16.2,64.6,31.8,0,15.7-14.5,24.4-42,28.4v1.8c26.8,1.1,38.6,3.2,38.6,24.5,0,17.5.7,22.9,10.6,24.7v2c-20.6.9-41.3,1.9-61.9,3-12.5.7-16.9-5.3-16.9-15.5v-19.1c0-7.4-3.2-9.9-10.8-9.8-2,0-3.9,0-5.9,0,0,15.4,0,30.8,0,46.3-22.6,1.3-45.2,2.7-67.7,4.3v-128c30.5,2.1,61,3.9,91.5,5.6ZM358.2,635.6c0-7-4.7-9.7-16-9.5,0,6.9,0,13.9,0,20.8,11.3,0,16-2.6,16-11.3Z"/>
      <path class="st3" d="M577.3,605.8c15.4,33.7,30.8,66.6,46.2,99-21.5.4-43.1.9-64.6,1.5-1.6-3.9-3.1-7.7-4.7-11.6-14.3.3-28.5.6-42.8,1-1.1,4-2.3,8.1-3.4,12.1-22.6.8-45.2,1.7-67.8,2.7,14.2-37.1,28.5-72.9,42.7-107.7,31.4,1.2,62.9,2.2,94.4,3ZM531.1,635.4c-.7,0-1.5,0-2.2,0-2.9,10-5.7,20.1-8.6,30.3,7.5,0,14.9,0,22.4-.1-3.8-10-7.7-20-11.5-30.1Z"/>
      <path class="st3" d="M697.3,607.7c14.1,12.2,28.2,24.3,42.3,36.3v-36.1c21.7,0,43.4,0,65.1-.2,0,32,0,64.1,0,96.1-20.1-.2-40.2-.2-60.2-.2-14.1-11-28.2-22-42.3-33v33.2c-21.7.2-43.4.4-65.1.8v-97.6c20.1.3,40.1.6,60.2.7Z"/>
      <path class="st3" d="M925.1,602.9c27-.7,52.8,3.2,68.6,10.8-10.2,10.5-20.5,20.8-30.7,30.8-9.3-4.2-19.2-5.9-30.5-5.8-19.9.2-31.9,6.6-32,17.3,0,11.3,12.3,17.7,33.9,17.9,2.9,0,5.2,0,7.1-.2,0-7,0-14,0-21,20.9,0,41.8,0,62.7-.1v55.5c-7-.3-13.9-.5-20.9-.7-4.8-2.5-9.5-5-14.3-7.5-15,5.7-33.7,8.9-51.9,8.5-56.5-1.5-94.1-21.9-94.1-52.2,0-31.6,39.3-51.5,102-53.3Z"/>
      <path class="st3" d="M1091.5,599.7v69.4c16.6.2,33.2.4,49.8.6v44.8c-39.1-2.2-78.3-4-117.4-5.5,0-35.4,0-70.8,0-106.3,22.5-.9,45-1.9,67.5-2.9Z"/>
      <path class="st3" d="M1293.7,587v39.5c-21.7.7-43.5,1.4-65.2,2v10.2c21.5-.4,43-.8,64.5-1.2v34.6c-21.5-.4-43-.8-64.5-1.1v11c23.4.6,46.8,1.3,70.1,2.1v40.9c-45.9-3.6-91.7-6.7-137.6-9.4v-119.6c44.3-2.6,88.5-5.6,132.7-9Z"/>
      <path class="st3" d="M1410.8,576.9c48.2-4.9,64.4,13.4,64.4,37.7,0,24.4-14.4,38.3-41.9,43.7v2.5c26.7,1.8,38.4,5.2,38.4,38,0,26.9.7,35.2,10.5,39.6v3.2c-20.6-2.1-41.1-4.2-61.7-6.2-12.5-1.2-16.9-9.9-16.9-23.5v-25.5c0-9.8-3.2-13.3-10.8-13.4-2,0-3.9,0-5.9-.1v59.3c-22.5-2-45.1-4-67.6-5.8v-141.6c30.5-2.5,60.9-5.1,91.4-8ZM1403,629c0-9.4-4.7-12.5-15.9-11.3v26.7c11.3-.1,15.9-3.8,15.9-15.4Z"/>
    </g>
    <g>
      <path class="st3" d="M376.6,205c16.3-8.9,51.5-5.3,69.4,27.7,26.8,49.3,6,132.5-18.8,146-11.7,6.3-26.2,4.6-35.2-12.1-3.8-7-6.7-18-6.7-18-2.3,20.8-5.9,82.7-20.3,90.5-12.8,7-37,5-46.7-12.9-22.6-41.6,8.1-88.9-11.9-125.8-2.3-4.3-2.2-6.8.1-8.1,7.8-4.2,27.5,6.2,36.8,23.3,13.9,25.6,5.6,83.5,11.3,94,1.1,1.9,2.9,2.5,4.4,1.6,3.5-1.9,12-41.8,12.4-71.6.6-34,.9-42.8,5.6-45.3,11.3-6.1,26.6,2.7,31.4,11.6,8.4,15.5,1.5,37.9,9.3,52.3,1.3,2.3,3.3,3.3,5.2,2.2,8.2-4.4,10.9-68.8-12.5-111.9-22.1-40.8-36.5-32-38.4-35.5-1.1-1.9,0-5.5,4.7-8.1Z"/>
      <path class="st3" d="M549.6,344.2c-26.3,7.6-56.1-1.2-65.8-34.8-15.5-53.5,24.3-109.7,54.5-118.5,10.6-3.1,29.4,7.6,33.1,20.3,7.6,27.7-14.4,67.7-36.9,74.2-5.1,1.5-14.9-.7-14.9-.7,0,0-2.2,13.1,3,30.9,3.7,12.7,9.6,15.6,15.1,14,28.9-8.4,53.8-63.5,66.1-98.8,1.1-2.6,1.6-4.1,2.8-4.5,3.8-1.1,8.6,2.6,9.4,5.5.7,2.5.2,5.5-.9,9.5-9.1,27.5-37.4,94.6-65.5,102.8ZM521,269.7c11-3.2,35.8-46.3,33.3-58-.5-1.7-1.7-2.7-3-2.4-4.7,1.4-20,16.8-30.3,60.4Z"/>
      <path class="st3" d="M712.8,294.8c-19.8,1.9-33-19.4-34-29.6-6.6.6-29,62.3-55,64.9-13.6,1.3-34.3-6-37.5-38.5-4.8-49.3,49.4-118.1,108.8-123.9,12.8-1.2,25,10.4,25.6,16.6.6,6.2-10.3,3.2-28.1,12.9-41.8,22.7-72.4,91-70.8,107.3.3,2.6,1.7,3.8,3.5,3.7,10.6-1,51.7-66.3,62.4-84.7,4.9-8.9,9.1-15.5,14-16,9.2-.9,18.6,8.4,19.4,17.2,1.8,18.9-18.4,39.1-17.6,47.5.3,3.1,1.7,4.3,3.5,4.1,11.4-1.1,39.2-43.1,51.4-63.4,1.5-2.4,2.3-3.8,3.6-3.9,4-.4,4.8,5.9,5.1,9,.3,2.6-.8,5.4-2.7,9.1-5.3,9.8-34.4,66-51.6,67.7Z"/>
      <path class="st3" d="M795.2,153.6c16.3-27.3,29.9-53,33.5-74.1.7-3.9,2.1-5.6,4.8-5.5,3.1.2,15.1,5.8,13.6,30.5-1.4,14.5-8.7,32.2-18.8,52.4,32.6,2.5,43.8,7.2,43.5,13.4-.3,4-6,10.3-11.3,9.9-3.5-.2-23.9-1.1-43.3-2.3-25.6,47.1-58.3,101.7-61.3,150.3-1.3,21.2,5.5,25.6,5.2,29.1-.1,1.8-2.5,3.8-6,3.6-10.6-.7-36.3-21.3-34-57.5,2.3-37.1,34.7-86,63.3-132.4-7.6-6.2-11.9-15.4-11.6-18.9.2-3.1,1.6-4.3,3.8-4.2,1.8.1,6.5,3.1,18.7,5.6Z"/>
      <path class="st3" d="M919,318.4c-17.2-4-28.2-21.5-24.2-38.7,8-34.5,53-60.3,55.3-70.2.3-1.3-.4-2.4-1.2-2.6-5.6-1.3-75.4,37.5-111.4,75.4-23.4,24.5-28.2,33.4-32.9,32.3-4.7-1.1-10.4-11.9-7-26.6,15.7-67.6,145.3-176.9,164.8-260.9.9-3.9,3.2-6.1,6.2-5.4,7.3,1.7,26.1,22.4,20.6,46.1-14.7,63.3-101.4,126.3-126.5,172.2,42.8-31.8,79.9-53.2,103.2-47.8,14.6,3.4,22.1,18.3,19.1,31.2-6.6,28.4-59.3,46.6-65,71.2-1,4.3.8,6.5,3.3,7.1,11.2,2.6,59.1-29.8,77.2-45.2,2.2-1.8,3.4-2.8,4.7-2.5,3.9.9,2.2,6.3,1.5,9.4-.6,2.6-2.5,4.9-5.4,7.8-16.3,15.7-61.1,52.1-82.2,47.2Z"/>
      <path class="st3" d="M998.3,361.8c-25-11.2-41.9-37.3-27.6-69.1,22.8-50.8,89.6-67.8,118.2-54.9,10.1,4.5,17.4,24.8,12,36.9-12.2,26-54.9,42.2-76.2,32.6-4.8-2.2-10.9-10.2-10.9-10.2,0,0-10.1,8.5-17.8,25.5-5.4,12.1-2.8,18.1,2.4,20.5,27.4,12.3,78.2-11.8,110.8-30.3,2.5-1.3,9.1-3.6,10.3-3.1,3.6,1.6,3.2,6.9,1.9,9.7-1.1,2.4-3.4,4.3-6.9,6.6-24.7,15.1-89.8,47.8-116.5,35.9ZM1024.9,286.5c10.5,4.7,57.3-12.1,63-22.6.7-1.6.5-3.2-.7-3.7-4.4-2-26.1-.1-62.2,26.3Z"/>
      <path class="st3" d="M1103.9,328.5c-1.8-1.3-5.4-7.4-2.8-11,2-1.9,4.5-3.1,9.6-5.3,28.9-10.9,53.6-22.6,53.6-22.6-.2-6.6,1.3-20.8,5.9-27.3,12.8-18,44.4-26.5,53-20.3,6.5,4.6,6.6,15.1,1.8,21.9-7.4,10.4-28,20.2-39.2,25.3-8.2,11.5,8.1,48.1-3.8,64.7-12.6,17.6-47,27.8-63.2,50.5-2.6,3.6-1.7,6.9.5,8.5,11.2,8,81.7-14,107.4-22.7,2.7-.8,4.2-1.3,5.3-.6,3.2,2.3,3.3,8.3,1.5,10.8-1.5,2.2-4.2,3.5-8,5.1-25.1,9.3-97.7,37.3-121.5,20.3-20.2-14.4-24.2-40.6-12.7-56.8,21.3-29.9,65.5-29.3,77.5-46.3,3.3-4.7,2.5-5.8-1.1-18.2,0,0-20.4,9.8-57.1,23.8-3,1.1-5.3,1.2-6.7.2Z"/>
    </g>
  </g>
</svg>