<?xml version="1.0" encoding="UTF-8"?>
<svg xmlns="http://www.w3.org/2000/svg" width="1500" height="769.4" viewBox="0 0 1500 769.4">
  <g id="a" data-name="Graphics">
    <g>
      <path d="M479.79,564.29l77.45-29.19c4.73-1.78,9.85-2.27,14.83-1.4l13.53,2.35c5.59.97,11.33-.59,15.66-4.26l155.29-139.62c10.29-8.73,25.3-8.98,35.88-.6l39.12,37.88c5.58,4.42,13.15,5.38,19.66,2.49l8.12-3.61c10.05-4.46,21.77-2.71,30.06,4.51l73.25,63.72c5.11,4.45,12.19,5.86,18.62,3.72l4.09-1.36c7.02-2.34,14.67-1.84,21.32,1.4l131.61,63.99H479.79Z" style="fill: #4a4354;"/>
      <path d="M659.47,479.45h0s0,0,0,0c-3.05-13.69-15.26-23.93-29.87-23.93-6.49,0-12.51,2.03-17.46,5.48-3.09-18.87-19.46-33.27-39.2-33.27-21.77,0-39.45,17.52-39.72,39.23-3.72-1.89-7.93-2.97-12.39-2.97-13.62,0-24.9,9.95-27,22.97-3.66-5.6-9.99-9.32-17.18-9.32-6.36,0-12.05,2.9-15.82,7.44-3.42-10-12.87-17.19-24.02-17.19-8.11,0-15.32,3.82-19.97,9.74-4.73-8.16-13.56-13.65-23.67-13.65-15.11,0-27.35,12.25-27.35,27.35,0,1.67.16,3.3.44,4.89h0l.33,22.46,248.02,1.09,44.86-40.33Z" style="fill: #33428e;"/>
      <path d="M618.29,447.21c3.64-1.06,7.44-1.6,11.3-1.6,16.05,0,30.51,9.69,36.96,23.93h3.94l63.11-56.75c-11.11-23.26-34.84-39.33-62.33-39.33-33.31,0-61.1,23.59-67.6,54.97,6.25,4.92,11.31,11.32,14.61,18.78Z" style="fill: #ffffc7;"/>
      <path d="M479.79,564.29l37.52-14.14-47.41-13.05c-5.01-1.38-10.32-1.22-15.24.47l-61.32,21.01c-.97.33-2.01.4-3.01.2l-15.37-3.07c-5.78-1.16-11.77.38-16.28,4.18l-5.24,4.41,179.76.65v-.65h-53.41Z" style="fill: #8282a0;"/>
      <path d="M1096.74,515.58c-11.56-5.85-25.09-6.42-37.11-1.57l-11.46,6.48,90.09,43.81h8.3v-17.59l-49.82-31.13Z" style="fill: #8282a0;"/>
    </g>
  </g>
  <g id="b" data-name="Text">
    <g>
      <g>
        <path d="M168.44,728.7c-9.76-16.28-19.51-33.09-29.27-50.49-9.68,17.9-19.35,36.39-29.02,55.51-19.68,1.78-39.35,3.63-59.01,5.57-10.73-54.63-21.46-111.36-32.19-170.32,23.12,2.39,46.24,4.66,69.38,6.82,3.96,23.83,7.93,47.33,11.89,70.51,11.14-20.64,22.28-40.48,33.42-59.57,3.77.3,7.53.59,11.3.88,11.14,20.59,22.29,40.4,33.44,59.49,3.97-21.13,7.93-41.97,11.9-62.54,23.16,1.83,46.33,3.54,69.5,5.14-10.75,43.29-21.51,88.05-32.26,134.41-19.7,1.45-39.39,2.98-59.08,4.59Z" style="fill: #f4f4f4;"/>
        <path d="M258.57,590.38c-10.63,42.86-21.26,87.14-31.89,133-19.21,1.4-38.42,2.88-57.62,4.43-9.97-16.62-19.94-33.81-29.9-51.61-9.88,18.26-19.77,37.14-29.65,56.68-19.19,1.71-38.37,3.5-57.55,5.37-10.61-53.96-21.21-109.97-31.82-168.16,22.43,2.28,44.87,4.46,67.32,6.54,4.08,24.57,8.16,48.79,12.25,72.66,11.51-21.38,23.03-41.91,34.54-61.64,3.35.26,6.7.52,10.05.78,11.52,21.28,23.04,41.73,34.56,61.42,4.09-21.76,8.17-43.23,12.26-64.4,22.47,1.75,44.96,3.39,67.44,4.93M260.98,589.03c-.8-.06-1.6-.11-2.4-.17-22.49-1.57-44.97-3.26-67.44-5.05-.57-.05-1.14-.09-1.71-.14-.09.46-.18.91-.26,1.37-3.76,19.53-7.52,39.3-11.28,59.32-10.59-18.19-21.18-37.02-31.77-56.55-.18-.34-.36-.67-.55-1.01-.42-.03-.83-.07-1.25-.1-3.35-.26-6.7-.53-10.05-.8-.42-.03-.83-.07-1.25-.1-.18.31-.36.63-.55.94-10.59,18.17-21.17,37.01-31.76,56.57-3.76-21.97-7.51-44.23-11.27-66.78-.09-.53-.18-1.05-.26-1.58-.57-.05-1.14-.11-1.71-.16-22.45-2.12-44.89-4.35-67.32-6.69-.8-.08-1.6-.17-2.4-.25.15.8.29,1.61.44,2.41,10.6,58.32,21.21,114.45,31.82,168.54.1.51.2,1.03.3,1.54.55-.06,1.11-.11,1.66-.17,19.18-1.91,38.36-3.74,57.55-5.5.42-.04.84-.08,1.26-.11.18-.36.36-.71.54-1.07,9.28-18.33,18.57-36.07,27.85-53.27,9.36,16.68,18.73,32.82,28.09,48.46.18.3.36.61.54.91.42-.03.84-.07,1.26-.1,19.2-1.59,38.41-3.1,57.62-4.53.55-.04,1.11-.08,1.66-.12.1-.44.2-.87.3-1.31,10.63-45.76,21.26-89.96,31.89-132.74.15-.59.29-1.18.44-1.77h0Z" style="fill: #11163f;"/>
      </g>
      <g>
        <path d="M375.89,714.75c-12.07.66-17.94-4.66-17.94-16.32,0-6.43,0-12.87,0-19.3,0-7.77-3.59-9.25-9.8-9.17-1.63.02-3.26.04-4.89.07v46.52c-23.25,1.33-46.5,2.78-69.74,4.33v-130.24c30.84,2.07,61.69,3.94,92.55,5.6,22.81,1.24,39.99,5.08,51.06,11.3,9.64,5.43,14.53,12.55,14.53,21.35,0,15.5-13.74,24.91-42,29.21,0,.21,0,.43,0,.64,26.8,1.16,38.56,4.06,38.56,25.37,0,20.28,2,22.86,9.89,24.31.22.04.45.08.67.12v3.16c-20.97.92-41.93,1.93-62.89,3.03ZM343.25,646.12c10.41-.08,13.96-2.86,13.96-10.7,0-6.13-3.45-8.61-12.32-8.86-.52-.01-1.07-.02-1.63-.02v19.57Z" style="fill: #f4f4f4;"/>
        <path d="M366.07,596.93c48.37,2.69,64.59,16.26,64.58,31.95,0,15.86-14.49,24.66-41.99,28.69,0,.6,0,1.21,0,1.81,26.77,1.08,38.56,3.28,38.56,24.77,0,17.71.74,23.11,10.56,24.91,0,.69,0,1.37,0,2.06-20.63.9-41.26,1.88-61.89,2.95-12.52.67-16.94-5.34-16.94-15.68v-19.29c0-7.44-3.19-9.94-10.8-9.85-1.96.02-3.93.05-5.89.07v46.57c-22.58,1.28-45.16,2.67-67.74,4.16v-128.61c30.51,2.02,61.02,3.84,91.55,5.47M342.25,646.82c11.29.09,15.96-2.59,15.96-11.38,0-6.52-3.94-9.3-13.32-9.57-.84-.02-1.71-.03-2.64-.01v20.96M366.07,595.56c-30.53-1.67-61.04-3.54-91.55-5.6-.67-.05-1.33-.09-2-.14,0,.5,0,1,0,1.5,0,42.96,0,85.91,0,128.87,0,.5,0,1,0,1.5.67-.05,1.33-.09,2-.14,22.57-1.53,45.15-2.95,67.74-4.26.67-.04,1.33-.08,2-.12v-46.48c1.3-.02,2.59-.04,3.89-.05,5.84-.08,8.8,1.22,8.8,8.5,0,6.44,0,12.88,0,19.32,0,12.13,6.2,17.66,18.94,16.96,20.62-1.1,41.25-2.11,61.89-3.02.67-.03,1.33-.06,2-.09v-4.25c-.45-.08-.89-.16-1.34-.25-8.37-1.54-9.22-5.88-9.22-23.71,0-20.93-11.06-24.54-36.12-25.86,26.6-4.62,39.56-14.08,39.56-29.32,0-9-5.02-16.29-14.9-21.86-11.24-6.32-28.63-10.23-51.68-11.5h0ZM344.25,627.25c.22,0,.43,0,.64.01,8.36.23,11.32,2.35,11.32,8.14,0,7.27-2.85,9.78-11.96,10.01v-18.16h0Z" style="fill: #11163f;"/>
      </g>
      <g>
        <path d="M558.1,707.49c-1.56-3.9-3.11-7.81-4.67-11.74-13.71.29-27.41.62-41.12.97-1.15,4.08-2.29,8.17-3.44,12.27-23.31.79-46.62,1.7-69.93,2.72,14.41-37.93,28.83-74.56,43.24-110.14,31.96,1.21,63.93,2.2,95.91,2.97,15.58,34.52,31.16,68.24,46.74,101.46-22.25.39-44.49.89-66.74,1.49ZM541.42,665.03c-3.7-9.7-7.4-19.47-11.09-29.3-.19,0-.38,0-.57,0-2.75,9.76-5.51,19.56-8.26,29.41,6.64-.04,13.28-.07,19.92-.11Z" style="fill: #f4f4f4;"/>
        <path d="M577.32,605.11c15.4,34.14,30.8,67.48,46.21,100.33-21.55.38-43.09.86-64.64,1.43-1.56-3.9-3.11-7.81-4.67-11.73-14.25.3-28.51.63-42.76.99-1.15,4.08-2.29,8.17-3.44,12.27-22.6.76-45.21,1.63-67.8,2.6,14.25-37.45,28.49-73.63,42.74-108.79,31.45,1.17,62.9,2.13,94.36,2.89M520.31,665.76c7.45-.05,14.91-.09,22.36-.13-3.85-10.1-7.7-20.26-11.55-30.49-.74,0-1.47-.02-2.21-.03-2.87,10.16-5.73,20.38-8.6,30.64M578.86,603.97c-.51-.01-1.02-.03-1.54-.04-31.46-.77-62.91-1.76-94.36-2.96-.52-.02-1.04-.04-1.57-.06-.13.31-.25.62-.38.93-14.25,35.2-28.5,71.43-42.74,108.93-.21.54-.41,1.08-.62,1.63.85-.04,1.71-.08,2.56-.11,22.6-1,45.2-1.88,67.8-2.66.56-.02,1.12-.04,1.69-.06.1-.34.19-.68.29-1.03,1.05-3.75,2.1-7.5,3.15-11.24,13.16-.34,26.32-.66,39.48-.95,1.44,3.62,2.87,7.23,4.31,10.83.12.3.24.61.36.91.53-.01,1.06-.03,1.59-.04,21.54-.59,43.09-1.08,64.64-1.46.87-.02,1.74-.03,2.61-.05-.23-.48-.45-.96-.68-1.44-15.4-32.83-30.81-66.15-46.21-100.26-.13-.29-.27-.59-.4-.88h0ZM522.68,664.53c2.49-8.89,4.97-17.74,7.46-26.56,3.34,8.87,6.68,17.7,10.02,26.47-5.83.03-11.65.06-17.48.09h0Z" style="fill: #11163f;"/>
      </g>
      <g>
        <path d="M743.95,704.88c-13.59-10.78-27.17-21.52-40.76-32.32v32.47c-22.38.15-44.76.41-67.14.77v-100.1c20.59.33,41.18.57,61.77.73,13.58,11.91,27.16,23.71,40.74,35.48v-35.3c22.38.04,44.76-.03,67.15-.2v98.67c-20.58-.16-41.16-.23-61.75-.21Z" style="fill: #f4f4f4;"/>
        <path d="M804.7,607c0,32.51,0,65.01,0,97.52-20.08-.15-40.15-.21-60.23-.2-14.09-11.18-28.19-22.33-42.28-33.53v33.69c-21.71.15-43.43.39-65.14.73v-98.92c20.07.32,40.15.55,60.22.7,14.09,12.36,28.19,24.61,42.28,36.82v-36.63c21.71.03,43.43-.03,65.14-.19M806.7,605.85c-.67,0-1.34.01-2,.02-21.71.17-43.43.23-65.14.19-.67,0-1.34,0-2,0v33.96c-12.87-11.16-25.73-22.34-38.6-33.62-.2-.17-.4-.35-.59-.52-.36,0-.72,0-1.09,0-20.08-.15-40.15-.39-60.22-.72-.67-.01-1.34-.02-2-.03v101.28c.67-.01,1.33-.02,2-.03,21.71-.35,43.43-.6,65.14-.75.67,0,1.34,0,2-.01v-31.26c12.88,10.23,25.76,20.42,38.65,30.63.2.16.4.32.6.47.34,0,.69,0,1.03,0,20.08-.02,40.15.05,60.23.2.67,0,1.34.01,2,.02v-99.82h0Z" style="fill: #11163f;"/>
      </g>
      <g>
        <path d="M917.27,709.7c-28.02-.7-51.86-6.12-68.96-15.65-17.13-9.56-26.18-22.57-26.18-37.87,0-32.45,39.47-52.81,103-54.56,27.3-.71,53.17,3.24,69.21,11.09.22.11.44.21.66.32-10.58,10.97-21.16,21.7-31.74,32.24-.29-.13-.59-.27-.88-.4-9.04-4.09-18.53-5.9-29.86-5.81-19.38.18-30.95,6.51-30.95,16.98,0,11.15,11.69,17.38,32.91,17.59,2.47.02,4.4-.06,6.13-.17v-21.36c21.56-.04,43.11-.09,64.66-.14v57.45c-7.42-.26-14.83-.52-22.25-.76-4.65-2.49-9.3-4.96-13.95-7.4-15.47,5.9-34.3,8.88-51.8,8.45Z" style="fill: #f4f4f4;"/>
        <path d="M925.13,602.2c27.03-.7,52.84,3.28,68.56,10.99-10.24,10.61-20.48,20.99-30.71,31.19-9.34-4.22-19.17-6.01-30.47-5.92-19.91.19-31.95,6.71-31.95,17.57,0,11.43,12.29,17.96,33.92,18.18,2.95.03,5.16-.1,7.13-.22v-21.31c20.89-.03,41.78-.07,62.66-.12,0,18.73,0,37.45,0,56.18-6.96-.24-13.92-.48-20.88-.7-4.75-2.54-9.5-5.06-14.25-7.56-14.99,5.83-33.67,9.06-51.85,8.61-56.53-1.49-94.14-22.1-94.14-52.94,0-32.1,39.33-52.26,102-53.97M925.13,601.02c-31.28.83-57.5,6.34-75.84,15.94-18.43,9.66-28.16,23.13-28.17,39.21,0,15.46,9.16,28.61,26.49,38.28,17.29,9.63,41.37,15.12,69.65,15.83,17.45.43,36.22-2.48,51.73-8.29,4.37,2.3,8.73,4.61,13.1,6.95.19.1.37.2.56.3.24,0,.48.02.72.02,6.96.23,13.92.47,20.88.72.67.02,1.33.05,2,.07v-58.73c-.67,0-1.33,0-2,0-20.88.06-41.77.11-62.66.16-.67,0-1.34,0-2,0v21.41c-1.47.08-3.12.13-5.12.12-20.58-.2-31.91-6.21-31.91-16.99,0-5,2.72-9.12,7.87-11.94,5.17-2.83,12.81-4.38,22.08-4.45,11.1-.09,20.4,1.69,29.26,5.7.59.27,1.18.53,1.77.8.39-.38.77-.77,1.16-1.15,10.24-10.21,20.48-20.6,30.71-31.22.3-.31.59-.61.89-.92-.44-.21-.87-.43-1.31-.64-16.21-7.94-42.32-11.92-69.85-11.2t0,0Z" style="fill: #11163f;"/>
      </g>
      <g>
        <path d="M1022.91,710.06v-108.61c23.19-.88,46.37-1.88,69.55-2.99v70.07c16.62.18,33.23.37,49.85.57v46.52c-39.78-2.18-79.58-4.04-119.4-5.55Z" style="fill: #f4f4f4;"/>
        <path d="M1091.46,599.17v70.01c16.62.19,33.23.39,49.85.6v45.1c-39.12-2.12-78.25-3.92-117.4-5.4v-107.43c22.52-.85,45.04-1.81,67.55-2.87M1093.46,597.75c-.67.03-1.33.06-2,.1-22.51,1.09-45.03,2.07-67.55,2.94-.67.03-1.33.05-2,.08v109.78c.67.03,1.33.05,2,.08,39.14,1.52,78.28,3.36,117.4,5.52.67.04,1.33.07,2,.11v-47.94c-.67,0-1.33-.02-2-.02-15.95-.18-31.9-.36-47.85-.52v-70.13s0,0,0,0Z" style="fill: #11163f;"/>
      </g>
      <g>
        <path d="M1159.94,716.61v-121.7c44.93-2.58,89.85-5.58,134.73-9.02v41.27c-21.74.68-43.49,1.32-65.24,1.92,0,2.94,0,5.87,0,8.81,21.51-.4,43.01-.82,64.51-1.27v36.31c-21.5-.4-43-.78-64.51-1.14,0,3.18,0,6.36,0,9.55,23.39.62,46.77,1.28,70.15,1.99v42.68c-46.52-3.59-93.07-6.72-139.64-9.39Z" style="fill: #f4f4f4;"/>
        <path d="M1293.68,586.77v39.62c-21.74.7-43.49,1.35-65.25,1.97v10.3c21.51-.38,43.01-.78,64.51-1.21v34.66c-21.5-.38-43-.74-64.51-1.08v11.03c23.39.63,46.77,1.31,70.15,2.04v41.02c-45.85-3.49-91.74-6.54-137.64-9.15v-120.41c44.27-2.52,88.51-5.44,132.74-8.78M1295.67,585.01c-.67.05-1.33.1-2,.15-44.22,3.41-88.47,6.41-132.74,8.98-.67.04-1.33.08-2,.12v122.98c.67.04,1.33.08,2,.12,45.9,2.67,91.79,5.79,137.64,9.36.67.05,1.33.1,2,.16v-44.35c-.67-.02-1.33-.04-2-.06-22.71-.67-45.43-1.29-68.15-1.87v-8.05c20.84.36,41.68.75,62.51,1.15.67.01,1.33.03,2,.04,0-.54,0-1.07,0-1.61,0-11.58,0-23.16,0-34.74,0-.54,0-1.07,0-1.61-.67.01-1.33.03-2,.04-20.83.45-41.67.88-62.51,1.28v-7.32c21.09-.56,42.17-1.17,63.25-1.81.67-.02,1.33-.04,2-.06v-42.92h0Z" style="fill: #11163f;"/>
      </g>
      <g>
        <path d="M1420.61,736.37c-12.04-1.17-17.9-9.14-17.9-24.43v-25.42c0-10.25-3.59-12.33-9.78-12.46-1.63-.03-3.25-.07-4.88-.1v59.41c-23.2-2.08-46.42-4.05-69.64-5.9v-143.44c30.81-2.46,61.61-5.12,92.4-7.98,22.76-2.14,39.89.36,50.91,8.05,9.61,6.67,14.48,17.07,14.48,30.56,0,23.87-13.69,38.69-41.86,44.39v.9c26.72,1.8,38.43,6.34,38.43,38.89,0,30.79,2,35,9.86,38.52.22.1.45.2.67.3,0,1.63,0,3.26,0,4.89-20.89-2.16-41.78-4.22-62.69-6.19ZM1388.06,643.45c10.39-.35,13.93-4.09,13.93-14.43,0-8.07-3.45-11.06-12.29-10.67-.52.02-1.07.06-1.63.1v25Z" style="fill: #f4f4f4;"/>
        <path d="M1410.82,576.98c48.25-4.79,64.39,13.47,64.39,37.74,0,24.39-14.44,38.21-41.86,43.58v2.54c26.69,1.75,38.43,5.22,38.43,37.96,0,26.84.74,35.08,10.52,39.48v3.18c-20.56-2.09-41.12-4.1-61.69-6.02-12.49-1.2-16.9-9.84-16.9-23.43v-25.45c0-9.83-3.19-13.25-10.78-13.39-1.96-.04-3.92-.08-5.88-.12v59.34c-22.54-1.99-45.09-3.88-67.64-5.67,0-47.32,0-94.63,0-141.95,30.48-2.41,60.95-5.01,91.4-7.81M1387.06,644.37c11.27-.13,15.92-3.76,15.92-15.38,0-8.61-3.93-11.96-13.29-11.53-.83.04-1.71.1-2.63.2v26.71M1410.82,575.14c-30.45,2.86-60.92,5.52-91.4,7.99-.67.05-1.33.11-2,.16v144.93c.67.05,1.33.11,2,.16,22.55,1.82,45.1,3.76,67.64,5.8.67.06,1.33.12,2,.18,0-.6,0-1.19,0-1.79,0-19.23,0-38.46,0-57.69,1.29.03,2.59.06,3.88.09,5.82.12,8.78,1.94,8.78,11.52v25.39c0,15.87,6.18,24.17,18.9,25.42,20.57,1.96,41.14,4.01,61.69,6.16.66.07,1.33.14,1.99.21,0-.67,0-1.33,0-2,0-1.06,0-2.13,0-3.19,0-.47,0-.95,0-1.42-.45-.2-.89-.4-1.34-.6-8.34-3.73-9.19-10.41-9.19-37.55,0-32.02-11.01-37.64-36-39.63,26.52-6.22,39.43-21.15,39.43-44.65,0-13.82-4.99-24.49-14.85-31.32-11.21-7.81-28.54-10.34-51.53-8.16h0ZM1389.05,619.28c.21-.01.43-.02.63-.03,8.34-.36,11.3,2.2,11.3,9.8,0,9.55-2.84,12.94-11.93,13.46,0-7.74,0-15.49,0-23.23t0,0Z" style="fill: #11163f;"/>
      </g>
    </g>
    <g>
      <g>
        <path d="M348.65,443.98c-13.84,0-25.57-6.4-31.39-17.13-11.77-21.68-9.25-44.81-6.83-67.17,2.29-21.09,4.46-41.01-5.12-58.64-2.55-4.71-2.38-7.9.53-9.47,1.29-.7,2.88-1.06,4.71-1.06,9.66,0,25.39,9.95,33.43,24.75,8.61,15.86,8.81,43.26,8.98,65.28.1,13.32.19,24.83,2.29,28.7.52.96,1.26,1.5,2.07,1.5.33,0,.66-.09.99-.27,2.85-1.96,11.51-39.74,11.91-70.77.67-35.72.99-43.37,6.12-46.16,2.64-1.43,5.59-2.16,8.79-2.16,10.22,0,20.24,7.2,24.02,14.16,4.41,8.13,4.72,18.02,5.01,27.58.28,9.2.55,17.89,4.26,24.73.73,1.34,1.72,2.11,2.72,2.11.38,0,.76-.1,1.14-.31,1.3-.71,3.11-4.38,4.27-12.56,1.09-7.68,1.38-17.61.81-27.97-.84-15.37-4.3-44.91-17.95-70.06-16.89-31.12-29.23-32.99-34.5-33.79-1.79-.27-3.21-.49-3.88-1.72-1.36-2.5-.04-6.65,5.08-9.43,5.08-2.76,11.83-4.28,19-4.28,21.38,0,40.72,12.12,51.74,32.42,12.1,22.3,15.77,54.05,10.06,87.11-5.06,29.29-16.83,53.52-29.29,60.28-4.24,2.3-8.79,3.52-13.15,3.52h0c-9.51,0-17.83-5.68-23.43-15.99-2.23-4.1-4.14-9.47-5.37-13.31-.16,1.63-.32,3.4-.5,5.28-2.58,27.66-6.89,73.94-19.82,80.96-4.58,2.48-10.5,3.85-16.69,3.85Z" style="fill: #f4f4f4;"/>
        <path d="M395.1,200.87c17.1,0,38.24,8.65,50.86,31.9,26.78,49.35,6.03,132.54-18.83,146.03-4,2.17-8.34,3.4-12.67,3.4-8.3,0-16.6-4.5-22.55-15.47-3.8-6.99-6.74-17.97-6.74-17.97-2.27,20.85-5.93,82.69-20.3,90.49-4.41,2.39-10.16,3.73-16.21,3.73-11.54,0-24.15-4.88-30.51-16.6-22.56-41.58,8.09-88.9-11.94-125.81-2.32-4.27-2.21-6.85.12-8.11,1.17-.63,2.61-.94,4.24-.94,9.23,0,24.67,9.7,32.55,24.23,13.92,25.65,5.57,83.49,11.27,93.98.73,1.35,1.82,2.02,2.94,2.02.49,0,.99-.13,1.46-.39,3.5-1.9,12.05-41.75,12.43-71.63.64-34.05.94-42.76,5.6-45.29,2.61-1.42,5.44-2.04,8.31-2.03,9.5,0,19.41,6.77,23.14,13.64,8.44,15.54,1.47,37.93,9.27,52.31.91,1.68,2.22,2.63,3.6,2.63.53,0,1.08-.14,1.62-.43,8.16-4.43,10.94-68.81-12.46-111.95-22.14-40.8-36.49-32.01-38.38-35.51-1.05-1.94.01-5.54,4.67-8.07,4.83-2.62,11.32-4.16,18.52-4.16M395.1,198.87c-7.33,0-14.25,1.56-19.48,4.4-5.68,3.08-7.07,7.86-5.48,10.78.9,1.67,2.7,1.94,4.61,2.23,5.12.78,17.12,2.59,33.78,33.28,13.56,24.98,16.99,54.36,17.83,69.64,1.38,25.16-2.35,38.39-4.56,39.59-.23.13-.46.19-.66.19-.61,0-1.3-.59-1.84-1.59-3.6-6.63-3.86-15.2-4.14-24.28-.3-9.68-.61-19.69-5.13-28.03-3.92-7.22-14.3-14.68-24.89-14.68-3.36,0-6.48.77-9.27,2.28-5.63,3.05-5.97,10.82-6.65,47.01-.37,29.34-8.58,66.49-11.51,69.97-.13.06-.26.08-.38.08-.42,0-.85-.35-1.19-.97-1.98-3.65-2.07-15.59-2.17-28.24-.17-22.13-.37-49.67-9.1-65.75-3.78-6.97-9.6-13.45-16.37-18.24-6.32-4.47-12.86-7.03-17.93-7.04-2,0-3.75.4-5.19,1.18-1.82.99-2.81,2.59-2.85,4.64-.04,1.71.59,3.73,1.92,6.18,9.42,17.36,7.27,37.13,5,58.06-2.45,22.52-4.97,45.8,6.94,67.75,6,11.05,18.06,17.65,32.27,17.65,6.35,0,12.44-1.41,17.16-3.97,12.36-6.71,16.98-45.71,20.34-81.75.02-.21.04-.42.06-.63,1.1,3.03,2.45,6.32,3.93,9.06,5.78,10.65,14.41,16.51,24.31,16.51,4.53,0,9.24-1.26,13.62-3.64,12.92-7.01,24.62-30.95,29.8-60.99,5.75-33.28,2.04-65.26-10.16-87.76-6.04-11.13-14.29-19.69-24.52-25.45-8.7-4.9-18.41-7.49-28.09-7.49h0ZM357.63,409.74h0s0,0,0,0h0Z" style="fill: #11163f;"/>
      </g>
      <g>
        <path d="M1126.27,432.13c-10,0-17.68-1.86-22.81-5.52-19.56-13.95-25.48-40.61-12.92-58.23,12.34-17.3,31.84-24.41,49.05-30.69,12.59-4.59,23.47-8.56,28.47-15.57,2.74-3.85,2.45-4.82-.34-14.15-.19-.65-.4-1.33-.61-2.06-4.65,2.17-24.41,11.22-56.01,23.35-6.67,3.89-62.98,36.07-98.51,36.07-5.79,0-10.71-.9-14.65-2.66-22.11-9.94-39.86-32.89-31.11-62.31-13.4,9.27-31.04,19.5-43.67,19.5-1.57,0-3.06-.16-4.42-.47-8.59-1.99-15.93-7.26-20.66-14.84s-6.24-16.49-4.25-25.08c5.26-22.74,25.9-41.31,40.97-54.87,7.29-6.56,13.59-12.23,14.32-15.38.18-.76-.17-1.28-.48-1.35,0,0-.03,0-.1,0-6.78,0-74.64,37.51-110.34,75.13-8.18,8.58-14.14,15.32-18.5,20.24-7.81,8.82-11.04,12.48-14.35,12.48-.33,0-.67-.04-1-.12-2.86-.66-5.65-4.06-7.27-8.86-1.86-5.5-2.03-12.22-.48-18.92,6.63-28.66,32.96-64.02,67.07-107.02-.96.33-1.92.5-2.84.5-.16,0-.32,0-.47-.01-1.05-.07-3.61-.19-7.19-.36-8.27-.4-22.03-1.05-35.44-1.9-2.52,4.63-5.1,9.34-7.72,14.1-23.65,43.05-50.46,91.84-53.2,135.2-.94,14.78,2.12,21.15,3.94,24.95.8,1.68,1.39,2.89,1.3,4.18-.14,2.19-2.65,4.56-6.46,4.56-.19,0-.39,0-.59-.02-5.3-.34-14.62-5.44-22.57-15.84-6.35-8.32-13.66-22.49-12.38-42.75.24-3.71.78-7.67,1.63-11.79-3.24,2.52-6.18,3.92-8.77,4.17-.86.08-1.74.13-2.6.13-17.51,0-30.28-18.14-32.26-29.15-2.14,2-6.2,9.2-9.84,15.65-10.54,18.69-26.47,46.95-44.25,48.68-1.03.1-2.08.15-3.13.15-5.92,0-25.33-1.95-32.9-26.42-13.47,23.38-26.27,36.96-38.04,40.37-5.94,1.73-11.95,2.6-17.87,2.6-23.87,0-42.25-14.22-49.17-38.04-4.08-14.06-8.19-42.74,10.18-76.77,11.62-21.53,29.27-38.39,44.96-42.94,1.31-.38,2.77-.58,4.34-.58,10.73,0,26.49,9.63,29.96,21.58,3.61,13.19.97,29.88-7.24,45.8-7.92,15.37-19.27,26.46-30.35,29.68-1.26.36-2.87.55-4.78.55-3.72,0-7.71-.68-9.58-1.04-.37,3.4-1.14,14.85,3.09,29.42,2.6,8.97,6.56,13.71,11.45,13.71.79,0,1.6-.12,2.43-.36,20.21-5.87,37.99-35.26,49.36-58.94,2.52-12.66,8.06-26.15,16.03-39.03l.13-.37s1.3-1.93,1.46-2.18c.17-.41.6-1.08,1.43-2.41.06-.1.21-.28.46-.4,22.53-33.13,56.55-55.64,88.87-58.79.66-.06,1.33-.1,2-.1,12.24,0,24.05,10.97,24.7,17.6.4,4.08-3.2,5-8.64,6.39-4.9,1.25-11.62,2.97-19.93,7.53-24.25,13.19-42.54,40.55-51.29,55.68-13.32,23.04-19.75,43.28-19.04,50.63.1,1.04.51,2.77,2.14,2.77.08,0,.15,0,.23-.01,9.37-.91,48.37-61.37,61.62-84.2,4.61-8.39,9.22-15.97,14.76-16.51.45-.04.9-.07,1.35-.07,8.95,0,18.28,8.83,19.19,18.17,1.14,11.69-5.8,23.63-11.37,33.23-3.5,6.02-6.51,11.22-6.22,14.24.14,1.47.64,3.21,2.19,3.21.08,0,.15,0,.23-.01,10.67-1.04,37.79-41.59,50.63-62.88l.48-.74c.58-.9,1.04-1.61,1.51-2.19,5.32-8.85,10.92-17.88,16.34-26.61,2.4-3.87,4.8-7.74,7.17-11.59-7.39-6.4-11.58-15.38-11.34-19.17.28-4.47,2.93-5.14,4.48-5.14.13,0,.26,0,.39.01.75.05,1.7.42,3.26,1.03,2.74,1.07,7.27,2.83,14.88,4.46,14.3-23.93,29.3-51.23,32.99-73.11.48-2.71,1.55-6.3,5.41-6.3.13,0,.27,0,.41.01,3.47.22,16.11,6.23,14.5,31.6-1.18,12.62-6.83,28.53-18.26,51.46,28.84,2.32,42.21,6.48,42.88,13.39,38.75-48.64,78.58-98.87,88.7-142.59.91-3.92,3.2-6.27,6.12-6.27.43,0,.87.05,1.32.15,3.79.88,10.6,6.52,15.76,15.25,6.04,10.23,8.05,21.6,5.63,32.02-9.05,39.08-45.51,78.18-77.68,112.68-18.63,19.98-36.31,38.93-46.53,55.6,42.63-31.33,72-45.96,92.19-45.96,2.8,0,5.47.29,7.92.86,7.15,1.65,13.11,6.09,16.8,12.5,3.47,6.02,4.58,13.27,3.04,19.9-3.49,15.09-19.43,27.16-34.84,38.83-14.16,10.73-27.54,20.86-30.19,32.33-.41,1.78-.33,3.21.23,4.25.47.86,1.26,1.42,2.36,1.68.35.08.75.12,1.21.12,11.39,0,46.74-23.05,67.04-38.63,23.75-21.84,54.13-29.64,74.62-29.64,8.94,0,16.91,1.46,23.03,4.21,5.07,2.28,9.7,8.34,12.36,16.21,2.7,7.98,2.76,16.21.15,22.02-10.09,21.54-40.36,36.01-62.32,36.01-5.85,0-10.98-.97-15.23-2.88-4.1-1.84-8.88-7.5-10.62-9.68-2.49,2.35-10.49,10.58-16.71,24.41-4.48,9.95-3.81,16.58,1.92,19.16,4.84,2.18,10.71,3.28,17.46,3.28,20.26,0,49.54-10.09,84.69-29.19,1.76-1.46,3.86-2.52,7.34-4.06l.42-.24c1.6-.82,4.41-1.9,6.72-2.58,23.83-9.19,44.04-18.59,47.68-20.3-.04-6.47,1.32-20.57,6.08-27.25,10-14.03,31.3-22.71,45.3-22.71,3.96,0,7.12.76,9.12,2.18,3.31,2.36,5.28,6.22,5.56,10.87.26,4.35-1.04,8.88-3.56,12.42-8.06,11.31-31.32,21.86-39.34,25.48-3.32,5-2.01,15.25-.63,26.1,1.73,13.59,3.69,28.99-2.97,38.34-6.01,8.43-16.81,15.13-28.24,22.22-13.01,8.07-26.46,16.41-34.94,28.3-1.04,1.46-1.51,2.96-1.36,4.32.13,1.14.7,2.13,1.59,2.77,1.42,1.01,4.11,1.52,8.02,1.52,21.04,0,71.83-15.34,98.52-24.4l.9-.26c1.46-.42,2.51-.73,3.46-.73.72,0,1.32.18,1.84.55,1.7,1.21,2.81,3.42,3.05,6.07.22,2.36-.29,4.72-1.32,6.17-1.68,2.35-4.48,3.84-8.44,5.49l-3.15,1.17c-21.49,7.98-66.2,24.59-96.48,24.59,0,0,0,0,0,0ZM1027.15,286.06c.83.14,1.8.21,2.9.21,16.25,0,52.45-14.54,56.96-22.87.39-.88.45-2.02-.28-2.34-.41-.18-1.41-.49-3.5-.49-10.06,0-29.99,6.73-56.09,25.5ZM551.9,210.22c-.08,0-.16.01-.24.04-3.24.94-18.45,14.17-29.18,57.68,11.31-6.57,33.17-45.39,30.91-56.08-.27-.93-.89-1.64-1.49-1.64Z" style="fill: #f4f4f4;"/>
        <path d="M967.47,21.64c.35,0,.72.04,1.09.13,7.32,1.69,26.13,22.38,20.65,46.07-14.66,63.31-101.38,126.28-126.53,172.19,38.32-28.54,72.14-48.65,95.49-48.64,2.71,0,5.28.27,7.7.83,14.64,3.39,22.09,18.27,19.1,31.19-6.58,28.43-59.35,46.62-65.03,71.17-1,4.31.76,6.53,3.34,7.13.43.1.91.15,1.44.15,11.63,0,47.15-23.11,67.65-38.83,21.6-19.85,51.04-29.44,74.01-29.44,8.74,0,16.54,1.39,22.62,4.12,10.08,4.53,17.45,24.81,12.01,36.91-9.77,20.87-39.13,35.42-61.4,35.42-5.51,0-10.59-.89-14.82-2.8-4.84-2.18-10.91-10.24-10.91-10.24,0,0-10.14,8.53-17.75,25.47-5.44,12.1-2.82,18.12,2.43,20.48,5.21,2.34,11.26,3.37,17.87,3.37,25.56,0,59.48-15.35,85.25-29.36,1.67-1.4,3.72-2.44,7.18-3.98.17-.09.34-.19.5-.28,1.43-.73,4.18-1.81,6.51-2.5,26.63-10.27,48.4-20.63,48.4-20.63-.16-6.63,1.27-20.82,5.89-27.29,10.02-14.06,31.46-22.29,44.48-22.29,3.65,0,6.65.65,8.54,2,6.48,4.62,6.64,15.05,1.76,21.89-7.44,10.44-27.99,20.22-39.19,25.27-8.21,11.52,8.06,48.1-3.75,64.66-12.58,17.64-47,27.84-63.17,50.52-2.57,3.6-1.69,6.94.47,8.48,1.66,1.19,4.64,1.71,8.6,1.71,22.58,0,76.9-17,98.85-24.46,1.81-.51,3.07-.94,4.04-.94.49,0,.9.11,1.26.37,3.24,2.31,3.29,8.32,1.5,10.84-1.54,2.16-4.16,3.55-8.01,5.15-19.46,7.19-67.57,25.68-99.24,25.68-9.14,0-16.91-1.54-22.23-5.33-20.16-14.37-24.24-40.63-12.69-56.83,21.3-29.88,65.45-29.35,77.52-46.26,3.34-4.68,2.51-5.81-1.14-18.19,0,0-20.44,9.79-57.07,23.85,0,0,0,0,0,0-22.91,13.37-69.03,35.97-98.08,35.97-5.43,0-10.26-.79-14.24-2.58-23.63-10.62-40.01-34.45-29.64-63.93-15.88,11.27-33.37,21.03-45.54,21.03-1.48,0-2.88-.14-4.19-.45-17.23-3.99-28.15-21.49-24.16-38.72,7.98-34.46,52.99-60.34,55.29-70.25.3-1.29-.36-2.35-1.22-2.55-.09-.02-.2-.03-.32-.03-7.55,0-75.64,38.11-111.06,75.44-22.11,23.21-27.58,32.41-32.12,32.41-.26,0-.52-.03-.77-.09-4.74-1.1-10.4-11.94-7.01-26.58,7.1-30.67,37.66-69.92,70.75-111.49-2.06,2.11-4.81,3.75-7.49,3.75-.14,0-.27,0-.41-.01-3.53-.22-23.85-1.07-43.27-2.3-25.57,47.11-58.27,101.74-61.34,150.27-1.34,21.18,5.47,25.6,5.24,29.13-.11,1.68-2.23,3.62-5.46,3.62-.17,0-.35,0-.52-.02-10.59-.67-36.3-21.35-34.01-57.53.29-4.66,1.07-9.51,2.24-14.51-3.75,3.37-7.32,5.53-10.48,5.84-.85.08-1.68.12-2.5.12-18.4,0-30.53-20-31.47-29.69-6.6.64-29.02,62.34-54.98,64.87-.98.1-1.99.15-3.04.15-11.73,0-26.91-6.42-32.6-27.98-11.48,20.35-25.1,38.04-38.63,41.97-5.78,1.68-11.72,2.56-17.59,2.56-20.83,0-40.61-11.14-48.21-37.32-15.53-53.49,24.31-109.71,54.45-118.47,1.25-.36,2.62-.54,4.06-.54,10.77,0,25.74,9.63,29,20.86,7.59,27.72-14.41,67.71-36.91,74.24-1.28.37-2.86.51-4.51.51-4.91,0-10.44-1.24-10.44-1.24,0,0-2.19,13.07,2.99,30.9,3.1,10.67,7.74,14.43,12.41,14.43.91,0,1.81-.14,2.71-.4,19.29-5.6,36.84-32.08,50.04-59.58,2.55-12.89,8.13-26.25,15.98-38.91.04-.12.08-.23.12-.35,1.45-2.17,1.52-2.27,1.5-2.27,0,0,0,0,0,0-.02,0,0-.1,1.34-2.24.02-.04.07-.04.12-.04.01,0,.02,0,.03,0,.02,0,.05,0,.07,0,20.39-30.15,53.47-55.29,88.36-58.68.64-.06,1.27-.09,1.9-.09,12.05,0,23.13,10.85,23.7,16.7.6,6.16-10.35,3.23-28.06,12.95-41.76,22.72-72.43,91-70.85,107.28.24,2.47,1.53,3.68,3.14,3.68.11,0,.22,0,.33-.02,10.56-1.03,51.73-66.33,62.38-84.69,4.91-8.92,9.15-15.55,13.99-16.02.42-.04.83-.06,1.25-.06,8.82,0,17.37,8.87,18.19,17.27,1.84,18.92-18.4,39.1-17.59,47.46.28,2.89,1.57,4.12,3.18,4.12.11,0,.21,0,.32-.02,11.44-1.11,39.15-43.07,51.39-63.36.8-1.23,1.39-2.19,1.95-2.86,7.81-12.98,16.05-26.08,24-38.99-7.58-6.24-11.87-15.37-11.65-18.9.19-2.93,1.47-4.2,3.48-4.2.11,0,.22,0,.33.01,1.76.11,6.45,3.07,18.69,5.61,16.35-27.32,29.94-53.03,33.48-74.07.66-3.77,2-5.47,4.42-5.47.11,0,.23,0,.35.01,3.09.2,15.13,5.83,13.57,30.54-1.36,14.53-8.69,32.23-18.82,52.41,32.62,2.51,43.84,7.21,43.45,13.38-.07,1.13-.6,2.45-1.42,3.75,39.32-49.37,81.63-101.84,92.08-146.99.79-3.4,2.66-5.49,5.14-5.49M521.04,269.67c11.04-3.21,35.81-46.3,33.33-58.01-.43-1.47-1.39-2.43-2.47-2.43-.17,0-.34.02-.52.08-4.67,1.36-19.97,16.85-30.35,60.37M1030.05,287.27c15.88,0,52.82-14.12,57.84-23.4.72-1.61.46-3.18-.75-3.73-.78-.35-2.08-.58-3.91-.58-8.57,0-28.55,5.1-58.33,26.89,1.25.56,3,.82,5.15.82M967.47,19.64h0c-3.42,0-6.07,2.63-7.09,7.04-9.96,43.03-48.98,92.57-87.27,140.64-2.78-6.18-15.8-9.91-41.78-12.09,11.05-22.35,16.53-37.99,17.7-50.47v-.03s0-.03,0-.03c.7-11.03-1.12-19.69-5.4-25.74-3.68-5.19-8.04-6.79-10.04-6.92-.16-.01-.32-.02-.48-.02-5.14,0-6.08,5.36-6.39,7.12-3.63,21.55-18.36,48.47-32.5,72.16-7.11-1.57-11.4-3.24-14.02-4.26-1.66-.64-2.66-1.03-3.56-1.09-.15,0-.3-.01-.45-.01-1.53,0-5.13.59-5.48,6.07-.28,4.39,4.14,13.15,11.05,19.42-2.23,3.61-4.48,7.24-6.74,10.88-5.41,8.71-10.99,17.72-16.31,26.56-.49.61-.96,1.33-1.54,2.23l-.45.7-.02.03-.02.03c-18.33,30.38-41.34,61.57-49.87,62.4-.04,0-.09,0-.13,0-.87,0-1.13-1.62-1.19-2.31-.26-2.7,2.82-8.01,6.09-13.64,5.64-9.72,12.67-21.82,11.5-33.82-.95-9.8-10.76-19.07-20.18-19.07-.48,0-.97.02-1.44.07-6.03.59-10.61,8.07-15.55,17.05-5.04,8.69-17.97,29.63-31.12,48.67-22.05,31.93-28.31,34.86-29.71,34.99-.04,0-.09,0-.13,0-.84,0-1.08-1.17-1.15-1.87-.71-7.29,6.17-28,18.91-50.03,8.7-15.04,26.88-42.23,50.9-55.3,8.21-4.5,14.85-6.2,19.71-7.44,5.51-1.41,9.87-2.52,9.39-7.46-.7-7.14-12.74-18.51-25.69-18.51-.7,0-1.4.03-2.09.1-32.55,3.17-66.78,25.77-89.47,59.03-.32.21-.51.47-.61.62-.7,1.11-1.16,1.84-1.42,2.39-.15.22-.57.86-1.39,2.07l-.14.21-.08.24-.05.14c-7.97,12.91-13.53,26.43-16.07,39.14-20.39,42.41-37.72,55.11-48.68,58.3-.74.21-1.46.32-2.15.32-5.55,0-8.77-7.06-10.49-12.98-3.81-13.13-3.52-23.69-3.16-27.96,2.13.37,5.51.86,8.69.86,2.01,0,3.72-.2,5.06-.59,11.34-3.29,22.91-14.57,30.96-30.18,8.33-16.15,10.99-33.1,7.32-46.51-3.65-12.59-19.63-22.33-30.93-22.33-1.66,0-3.21.21-4.61.61-15.93,4.63-33.81,21.67-45.56,43.43-13.74,25.45-17.38,52.98-10.26,77.52,3.73,12.85,10.43,22.79,19.9,29.55,8.46,6.03,18.91,9.22,30.23,9.22,6.01,0,12.11-.89,18.14-2.64,11.7-3.4,24.31-16.48,37.51-38.92,8.21,23.12,27.24,25,33.15,25,1.08,0,2.17-.05,3.23-.16,18.3-1.78,34.38-30.3,45.03-49.18,2.86-5.07,6.24-11.07,8.44-14,1.42,5.2,4.78,11.29,9.01,16.11,6.73,7.67,15.18,11.89,23.79,11.89.89,0,1.8-.04,2.69-.13,2.24-.22,4.62-1.17,7.21-2.88-.59,3.28-.98,6.44-1.17,9.44-1.3,20.56,6.12,34.96,12.58,43.42,8.14,10.65,17.78,15.88,23.3,16.23.22.01.44.02.65.02,4.39,0,7.29-2.85,7.46-5.5.1-1.54-.56-2.92-1.4-4.67-1.78-3.72-4.76-9.94-3.84-24.45,2.73-43.13,29.48-91.82,53.08-134.78,2.57-4.67,5-9.11,7.42-13.55,13.22.82,26.68,1.47,34.82,1.86,3.56.17,6.13.29,7.17.36.18.01.36.02.54.02.13,0,.25,0,.38,0-33.38,42.14-59.01,76.91-65.58,105.3-1.59,6.88-1.41,13.79.51,19.46,1.76,5.21,4.75,8.77,8,9.52.4.09.82.14,1.22.14,3.76,0,6.84-3.49,15.1-12.81,4.35-4.91,10.31-11.64,18.47-20.21,20.36-21.45,49.84-41.42,65.61-51.41,23.59-14.95,40.08-22.76,43.63-23.37,0,.03,0,.06-.02.09-.66,2.84-7.15,8.68-14.01,14.86-15.17,13.65-35.94,32.34-41.27,55.38-2.05,8.85-.49,18.03,4.38,25.84,4.87,7.81,12.43,13.24,21.28,15.28,1.43.33,2.99.5,4.64.5,7.06,0,19.96-3.25,41.99-18.14-3.06,12.34-1.76,24.37,3.86,35.07,5.74,10.94,15.87,20.1,28.52,25.79,4.06,1.83,9.13,2.75,15.06,2.75,13.14,0,30.66-4.41,52.09-13.12,21.72-8.82,39.9-18.99,46.85-23.04,29.6-11.37,48.82-20.03,54.95-22.86.1.33.19.64.28.95,2.86,9.56,2.88,9.94.49,13.29-4.82,6.76-15.56,10.68-28,15.21-17.34,6.33-37,13.5-49.52,31.05-5.98,8.38-8.12,19.55-5.88,30.66,2.34,11.59,9.1,21.88,19.03,28.96,5.31,3.79,13.18,5.7,23.39,5.7,30.46,0,75.29-16.65,96.83-24.65l3.11-1.15h.04s.04-.03.04-.03c4.13-1.71,7.06-3.28,8.88-5.83,1.18-1.66,1.74-4.22,1.5-6.84-.27-2.98-1.51-5.39-3.47-6.79-.69-.49-1.5-.74-2.42-.74-1.09,0-2.26.34-3.74.77l-.85.24h-.05s-.05.03-.05.03c-26.64,9.04-77.3,24.35-98.2,24.35-4.84,0-6.74-.84-7.44-1.34-1.34-.96-1.86-3.09,0-5.69,8.36-11.72,21.73-20.01,34.65-28.03,11.52-7.14,22.4-13.89,28.52-22.49,6.89-9.67,4.9-25.27,3.15-39.05-1.34-10.48-2.6-20.4.32-25.18,8.33-3.76,31.34-14.29,39.47-25.69,2.65-3.72,4.02-8.48,3.74-13.06-.3-4.96-2.42-9.09-5.98-11.62-2.2-1.57-5.47-2.37-9.7-2.37-14.24,0-35.92,8.84-46.11,23.13-5.07,7.1-6.22,21.18-6.27,27.19-4.82,2.26-24.25,11.21-47.04,20-2.34.7-5.18,1.79-6.78,2.61l-.04.02-.04.02-.25.14-.17.09c-3.46,1.54-5.6,2.62-7.41,4.11-34.96,18.99-64.05,29.03-84.13,29.03-6.6,0-12.34-1.07-17.05-3.19-6.49-2.92-4.36-11.31-1.42-17.84,5.61-12.47,12.68-20.32,15.71-23.34,2.16,2.61,6.48,7.4,10.3,9.12,4.39,1.97,9.65,2.97,15.64,2.97,11.41,0,24.66-3.69,36.36-10.13,12.58-6.93,22.12-16.32,26.86-26.44,2.76-6.15,2.72-14.44-.1-22.78-2.75-8.13-7.57-14.4-12.9-16.8-6.25-2.81-14.36-4.3-23.44-4.3-20.66,0-51.28,7.86-75.3,29.9-21,16.1-55.71,38.37-66.36,38.37-.38,0-.71-.03-.98-.1-.81-.19-1.38-.58-1.71-1.18-.44-.81-.49-2.03-.14-3.55,2.57-11.12,15.81-21.15,29.82-31.76,15.55-11.78,31.64-23.97,35.21-39.41,1.59-6.87.44-14.38-3.15-20.62-3.83-6.65-10.03-11.26-17.44-12.97-2.53-.59-5.27-.88-8.15-.88-19.72,0-47.96,13.7-88.45,42.99,10.43-15.47,26.57-32.79,43.51-50.95,32.26-34.59,68.82-73.79,77.93-113.14,2.47-10.67.43-22.3-5.75-32.75-4.73-8-11.63-14.62-16.4-15.72-.52-.12-1.04-.18-1.54-.18h0ZM524.13,265.49c9.79-37.81,23.57-52.94,27.75-54.25.11.07.36.33.54.91.94,4.79-3.73,17.38-11.39,30.71-5.91,10.28-12.27,18.7-16.9,22.64h0ZM1029.99,285.27c32.03-22.52,49.89-23.71,53.25-23.71,1.89,0,2.75.27,3.03.38.03.13.06.49-.17,1.04-4.57,8.16-40.06,22.28-56.05,22.28-.02,0-.04,0-.07,0h0Z" style="fill: #11163f;"/>
      </g>
    </g>
  </g>
</svg>